<?xml version="1.0" encoding="UTF-8"?>
<svg xmlns="http://www.w3.org/2000/svg" viewBox="0 0 1720 1080">
  <defs>
    <style>
      .cls-1 {
        opacity: .52;
      }

      .cls-1, .cls-2, .cls-3, .cls-4, .cls-5, .cls-6, .cls-7, .cls-8, .cls-9, .cls-10, .cls-11 {
        fill: #a0785a;
      }

      .cls-2 {
        opacity: .31;
      }

      .cls-3 {
        opacity: .42;
      }

      .cls-4 {
        opacity: .45;
      }

      .cls-5 {
        opacity: .6;
      }

      .cls-6 {
        opacity: .59;
      }

      .cls-7 {
        opacity: .63;
      }

      .cls-8 {
        opacity: .72;
      }

      .cls-9 {
        opacity: .77;
      }

      .cls-10 {
        opacity: .7;
      }

      .cls-12 {
        fill: #6f4e37;
      }

      .cls-13 {
        fill: #462a1e;
      }
    </style>
  </defs>
  <g id="Layer_2" data-name="Layer 2">
    <polygon class="cls-12" points="460.21 401.85 450.81 450.94 460.21 470.32 470.36 476.47 489.4 563.6 480.74 568.21 479.59 604.56 499.21 620.72 506.13 717.08 529.79 759.78 654.42 822.67 795.79 848.63 897.92 833.63 1020.24 833.63 1045.63 807.67 1093.52 787.47 1107.94 765.55 1132.18 631.1 1150.64 609.18 1150.64 586.1 1139.68 573.98 1166.22 501.86 1181.22 490.89 1184.69 453.97 1190.46 433.77 1015.05 397.42 803.29 381.84 460.21 401.85"/>
    <polygon class="cls-12" points="497.04 416.26 516.27 416.26 516.27 401.4 490.48 358.56 473 334.52 465.56 321.84 444.58 318.34 437.15 334.08 448.52 353.31 467.75 379.54 467.31 395.72 469.06 406.64 497.04 416.26"/>
    <polygon class="cls-12" points="1037.59 416.26 1058.33 398.12 1124.49 323.07 1149.18 310.23 1190.46 318.34 1204.48 345.78 1199.54 386.27 1190.46 401.08 1190.46 433.77 1160.04 433.77 1154.11 416.26 1171.89 381.84 1168.93 344.8 1157.08 330.97 1137.33 338.87 1121.03 362.57 1081.04 399.11 1087.95 420.83 1037.59 416.26"/>
  </g>
  <g id="Layer_3" data-name="Layer 3">
    <polygon class="cls-13" points="490.75 413.07 579.55 440.39 811.52 462.59 999.99 462.59 1134.1 451.61 1158.26 440.96 1129.87 429 1007.85 404.53 804.87 393.14 622.44 399.97 490.75 413.07"/>
  </g>
  <g id="Layer_4" data-name="Layer 4">
    <polygon class="cls-11" points="504.05 484.91 524.56 585.11 504.05 585.11 489.85 520.41 474.86 473.86 489.85 487.27 504.05 484.91"/>
    <polygon class="cls-4" points="515.88 488.85 524.56 536.19 537.98 592.21 552.18 592.21 581.37 599.31 612.14 599.31 634.23 605.62 620.03 547.23 621.61 504.63 515.88 488.85"/>
    <polygon class="cls-3" points="643.7 508.58 668.94 518.83 695.77 513.7 702.08 611.93 652.38 605.62 634.23 529.48 643.7 508.58"/>
    <polygon class="cls-7" points="721.02 521.99 712.34 596.94 721.02 596.94 724.17 611.93 751.79 611.93 784.13 618.24 849.62 624.55 844.1 560.25 849.62 529.48 780.98 529.48 721.02 521.99"/>
    <polygon class="cls-11" points="878.02 521.99 915.89 525.93 915.89 550.39 931.67 525.14 941.93 525.14 949.82 540 939.56 619.82 913.92 619.82 866.19 619.82 870.92 540 878.02 521.99"/>
    <polygon class="cls-10" points="975.85 529.48 997.95 529.48 1008.99 547.23 1050.02 529.48 1074.48 529.48 1060.27 605.62 1039.76 605.62 954.55 619.82 975.85 529.48"/>
    <polygon class="cls-6" points="1077.63 605.62 1106.03 598.52 1130.49 515.68 1112.35 521.99 1092.62 521.99 1086.31 589.05 1077.63 605.62"/>
    <polygon class="cls-11" points="1117.08 597.73 1130.49 585.11 1154.95 508.58 1142.33 515.68 1117.08 597.73"/>
    <polygon class="cls-11" points="482.58 400.23 466.45 404.84 469.91 416.35 545.92 444.57 776.85 461.27 547.65 435.36 487.76 412.9 491.21 407.72 482.58 400.23"/>
    <polygon class="cls-11" points="756.22 468.58 1043.43 473.86 1142.91 461.27 1168 434.84 1177.52 441.76 1154.95 465.12 1055.54 478.96 879.93 478.96 756.22 468.58"/>
    <polygon class="cls-11" points="515.88 597.6 634.23 624.55 722.52 633.87 912.59 633.87 1043.38 624.55 1100.61 615.73 1133.82 605.62 1143.53 593 1118.8 605.62 1060.43 616.72 920.52 627.88 823.53 628.31 708.94 624.55 651.86 619.82 612.8 613.43 515.88 597.6"/>
    <polygon class="cls-5" points="949.82 658.96 976.45 658.96 1038.33 658.96 1053.62 653.86 1035.42 790 1014.51 811.11 997.57 796.55 966.87 811.11 936.42 811.11 949.82 658.96"/>
    <polygon class="cls-8" points="866.19 664.78 876.72 674.25 895.65 669.52 917.49 674.25 936.42 664.78 918.22 791.45 910.94 814.75 894.19 825.67 866.19 825.67 866.19 784.9 849.62 779.08 866.19 664.78"/>
    <polygon class="cls-9" points="709.25 664.78 726.33 670.38 756.22 667.58 846.62 667.58 829.71 814.74 805.49 825.67 733.31 803.87 705.37 795.33 709.25 664.78"/>
    <polygon class="cls-11" points="634.23 653.86 642.51 773.6 662.69 784.47 677.43 796.89 692.95 671.16 692.95 653.86 651.05 653.86 634.23 653.86"/>
    <polygon class="cls-2" points="537.74 633.87 543.17 695.22 550.93 640.89 554.03 664.55 561.8 725.38 585.08 725.38 600.6 728.59 610.69 751.1 616.12 644 549.38 633.87 537.74 633.87"/>
    <polygon class="cls-1" points="1060.07 650.37 1098.84 641.98 1125.62 631.19 1117.08 661.56 1109.63 649.17 1098.84 653.86 1080.05 715.91 1080.45 657.96 1067.67 668.75 1049.28 761.08 1060.07 650.37"/>
    <polygon class="cls-11" points="590.46 488.85 725.82 508.58 882.88 511.87 1025.09 515.68 1104.06 511.3 1154.95 502.26 1173.02 488.85 1170.16 470.18 1143.53 478.96 1014.51 500.45 692.95 488.85 554.48 462.59 559.62 474.18 583.04 475.32 590.46 488.85"/>
  </g>
</svg>