<?xml version="1.0" encoding="UTF-8"?>
<svg xmlns="http://www.w3.org/2000/svg" viewBox="0 0 1019.19 1126.22">
  <defs>
    <style>
      .cls-1 {
        fill: #2ba84a;
      }

      .cls-2 {
        fill: #854d27;
      }
    </style>
  </defs>
  <g id="Layer_5" data-name="Layer 5">
    <polygon class="cls-1" points="544.75 625.99 564.36 600.63 596.72 615.52 568.65 620.92 593.02 654.45 588.91 666.75 617.65 693.44 652.09 670.05 652.09 717.99 694.98 717.99 704.34 697.34 730.85 701.71 734.75 733.21 786.22 733.21 811.95 741.01 811.95 701.71 774.52 675.05 799.47 637.6 740.21 637.6 709.79 593.37 749.56 600.63 772.18 624.04 811.95 637.6 811.95 667.19 852.81 671.61 879.01 691.88 885.25 645.87 864.98 588.95 821.31 588.95 779.2 528.12 686.4 510.97 642.43 514.09 598.28 546.06 551.49 531.24 491.45 524.96 417.53 539.06 362.42 596.57 392.3 612.86 437.96 621.02 465.77 593.37 492.14 606.79 521.74 592.77 544.75 625.99"/>
  </g>
  <g id="Layer_6" data-name="Layer 6">
    <polyline class="cls-1" points="343.93 74.54 360.2 108.4 382.34 135.43 336.58 135.43 336.58 194.34 362.42 207.29 369.91 256.42 297.44 282.01 297.44 348.68 265.74 426.45 396.85 454.51 475.47 444.51 540.74 293.12 482.41 240.34 514.35 200.06 560.19 200.06 599.08 173.63 629.56 194.34 642.43 173.63 585.19 150.06 540.74 158.4 446.3 173.63 437.96 118.61 410.15 118.61 382.34 83.4 343.93 74.54"/>
  </g>
  <g id="Layer_2" data-name="Layer 2">
    <polygon class="cls-2" points="177.97 1046.08 242.39 1041.03 284.08 982.91 276.5 913.43 301.13 836.36 323.87 726.45 339.03 641.8 339.03 601.37 357.98 543.26 340.92 496.51 376.93 411.87 348.5 318.38 386.8 245.39 465.48 207.29 549.02 216.01 704.99 216.35 744.06 207.29 744.06 212.93 708.1 228.83 662.11 224.31 601.79 223.55 560.33 230.34 482.67 226.57 418.61 257 395.97 282.14 380.06 326.52 404.21 389.37 410.69 424.73 395.38 465.58 410.1 510.75 418.61 526.85 415.41 562.99 415.41 617.2 407.16 692.22 400.09 764.11 399.5 814.78 402.24 879.52 402.24 904.97 418.61 931.08 441.39 1000.26 452.16 1036.16 498.16 1049.21 552 1052.47 616.61 1064.87 613.67 1071.4 557.87 1067.48 500.12 1071.4 442.37 1063.57 429.64 1082.49 418.61 1105.99 418.61 1121.65 397.34 1126.22 389.51 1107.3 390.49 1072.7 374.83 1064.87 334.7 1048.56 332.74 1059.65 318.06 1070.09 275.96 1082.49 252.47 1101.42 231.92 1100.77 245.62 1085.11 255.41 1066.83 291.63 1056.39 277.92 1053.78 245.62 1059.65 202.55 1058.35 139.9 1063.57 155.57 1053.78 177.97 1046.08"/>
  </g>
  <g id="Layer_4" data-name="Layer 4">
    <polygon class="cls-1" points="0 330.4 21.67 465.15 110.73 448.11 139.9 495.36 133.09 567.59 240.39 615.52 308.49 581 352.56 559.88 390.93 592.56 428.47 546.26 504.3 524.96 553.78 545.34 590.01 559.88 631.07 544.78 669.86 563.27 745.96 506.15 806.9 456.21 855.61 505.35 920.09 425.17 961.06 448.72 951.99 384.06 890.63 308.54 817.18 308.54 805.36 245.44 819.16 204.46 776.46 163.89 727.8 264.44 667.68 264.88 620.04 209.32 521.74 236.18 483.8 298.68 373.02 387.63 378 360.75 333.8 286.18 269.59 118.61 193.77 144.29 185.79 215.9 64.78 213.7 0 330.4"/>
  </g>
  <g id="Layer_3" data-name="Layer 3">
    <polygon class="cls-2" points="410.15 701.71 425.7 684.94 450.86 684.94 465.77 684.94 465.77 678.53 446.15 676.31 426.53 675.05 414.83 681.06 410.15 701.71"/>
    <polygon class="cls-2" points="348.55 600.63 332.46 582.33 307.5 551.81 284.2 546.82 249.8 521.3 218.74 500.22 201.54 500.22 173.25 480.81 154.94 480.81 116.11 488.57 112.85 521.86 106.71 517.36 103.78 486.19 134.97 471.93 176.58 468.48 205.98 483.03 231.49 484.69 273.66 518.53 314.15 531.29 340.78 559.03 359.09 559.03 362.42 590.65 348.55 600.63"/>
    <polygon class="cls-2" points="402.28 661.99 401.04 686.93 401.04 717.99 410.68 714.27 415.46 682.15 430.86 665.16 460.32 650.03 497.75 635.43 517.13 638.62 530.14 637.82 578.72 652.15 594.65 649.76 621.46 670.2 637.72 698.61 632.87 709.49 624.91 710.82 625.44 713.74 633.41 713.48 642.43 703.12 639.25 686.4 626.77 664.63 614.82 646.58 594.38 639.15 568.63 637.02 535.18 623.75 515.81 623.75 493.24 615.52 458.73 629.59 442.8 632.24 418.3 651.36 402.77 653.75 402.28 661.99"/>
    <polygon class="cls-2" points="396.02 596.12 445.73 534.55 499.48 513.76 525.82 513.31 545.13 514.78 603.04 532.03 654.8 561.58 685.78 567.66 745.92 591.44 782.13 597.75 794.04 617.52 839.63 635.54 858.12 637.6 851.55 628.15 835.12 622.4 803.08 609.25 790.12 590.1 754.2 578.45 697.1 553.8 651.72 539.06 615.37 515.6 548.59 492.6 465 490.73 418.22 508.85 407.06 503.05 360.2 482.17 360.2 539.06 396.02 596.12"/>
    <polygon class="cls-2" points="360.2 330.4 311.44 266.12 285.46 214.9 285.46 159.23 301.04 99.1 341.13 70.89 350.78 58.28 351.96 61.51 343.93 74.54 310.53 100.08 304.82 113.48 300.35 129.91 294.64 171.88 298.39 215.27 302.31 225.81 324.1 264.56 341.07 290.1 356.78 301.35 360.2 330.4"/>
    <polygon class="cls-2" points="382.34 564.16 341.62 534.55 279.38 490.73 235.99 433.04 163.37 416.06 112.74 421.52 72.61 380.36 64.78 380.36 106.71 433.04 149.22 434.92 177.52 435.87 228.44 452.84 267.11 500 302.01 534.55 339.74 568.85 374.63 593.37 382.34 564.16"/>
    <polygon class="cls-2" points="416.47 474.73 477.43 458.5 501.96 419.83 566.09 370.79 641.54 338.72 676.44 323.63 728.31 308.54 782.07 308.54 819.8 324.57 834.89 330.4 852.81 334.95 833.94 339.66 798.1 330.4 766.98 320.8 703.79 330.4 638.71 363.24 605.7 375.5 565.15 395.31 526.48 432.09 509.5 463.22 465 490.73 392.3 524.96 416.47 474.73"/>
    <polygon class="cls-2" points="437.01 509.09 443.5 505.82 462.36 469.04 509.52 439.8 560.45 426.6 634.55 426.6 678.34 469.98 705.69 480.83 737.76 488.85 768.88 519.72 778.31 519.72 802.83 506.77 798.96 505.52 784 513.18 773.78 513.91 757.73 498.59 734.01 480.83 713.94 477.06 688.03 466.84 676.35 455.17 652.27 431.08 636.22 415.76 615.05 415.76 556.67 410.57 530.03 416.12 493.18 428.16 451.21 455.9 443.09 485.57 432.46 495.27 437.01 509.09"/>
    <polygon class="cls-2" points="241.18 356.23 219 330.92 213.21 296.42 233.47 228.18 256.92 190.87 297.44 164.22 297.44 135.43 287.35 140.66 287.35 152.7 279.9 168.64 263.31 172.78 236.31 197.44 219.1 237.02 203.61 282.84 203.61 335.67 221.39 355.06 234.47 377.4 241.18 356.23"/>
    <polygon class="cls-2" points="344.86 558.91 322.64 488.17 297.98 439.87 248.41 385.86 214.74 375.7 174.07 349.64 113.7 349.64 106.71 343.29 139.9 343.29 182.33 345.83 202.03 350.28 169.62 298.81 156.28 268.95 155.01 218.75 154.37 180.62 126.11 180.62 121.33 173.63 139.9 176.17 162.63 173.63 163.27 194.34 168.35 214.3 166.44 239.08 175.34 283.56 197.58 308.54 226.14 349.03 264.3 366.8 295.43 385.86 318.31 413.19 349.44 446.23 404.85 612.86 344.86 558.91"/>
  </g>
</svg>